<svg width="160" height="160" viewBox="0 0 160 160" fill="none" xmlns="http://www.w3.org/2000/svg">
<rect width="160" height="160" fill="black"/>
<path d="M112 90C112 97.732 105.732 104 98 104C90.268 104 84 97.732 84 90V88.9725C84 88.082 82.8451 87.7324 82.3512 88.4733L76.6406 97.0391C73.7411 101.388 68.8596 104 63.6328 104C54.9992 104 48.0003 97.0008 48 88.3672V70C48 62.268 54.268 56 62 56C69.732 56 76 62.268 76 70V83.0275C76 83.918 77.1549 84.2676 77.6488 83.5267L83.3594 74.9609C86.2589 70.6121 91.1404 68 96.3672 68C105.001 68.0003 112 74.9992 112 83.6328V90Z" fill="#EFF3F7"/>
</svg>
